<?xml version="1.0" standalone="no"?>
<!DOCTYPE svg PUBLIC "-//W3C//DTD SVG 20010904//EN"
 "http://www.w3.org/TR/2001/REC-SVG-20010904/DTD/svg10.dtd">
<svg version="1.0" xmlns="http://www.w3.org/2000/svg"
 width="192.000000pt" height="192.000000pt" viewBox="0 0 192.000000 192.000000"
 preserveAspectRatio="xMidYMid meet">
<metadata>
Created by potrace 1.15, written by Peter Selinger 2001-2017
</metadata>
<g transform="translate(0.000000,192.000000) scale(0.100000,-0.100000)"
fill="#000000" stroke="none">
<path d="M944 1686 c-68 -30 -97 -103 -69 -174 24 -59 70 -86 137 -80 69 7
109 47 115 115 7 67 -15 109 -70 134 -49 22 -71 23 -113 5z"/>
<path d="M421 1327 c-16 -20 -3 -65 44 -153 l33 -61 -29 -58 c-16 -32 -29 -65
-29 -75 0 -25 -28 -45 -88 -65 -59 -19 -69 -37 -58 -111 12 -94 49 -136 141
-164 30 -9 47 -23 68 -56 16 -25 55 -68 88 -96 58 -51 59 -53 59 -105 0 -100
10 -109 142 -120 91 -7 103 0 119 63 l11 44 98 0 98 0 13 -38 c20 -62 25 -65
99 -58 36 4 84 12 108 18 l42 10 0 87 c0 87 0 87 36 122 85 82 134 198 138
326 3 78 4 83 34 108 36 30 40 57 18 110 -19 44 -58 69 -95 62 -25 -5 -34 0
-71 44 -52 61 -125 111 -205 140 -87 31 -316 38 -437 14 -80 -16 -92 -16 -156
-1 -115 26 -205 31 -221 13z m720 -77 c22 -12 25 -43 5 -59 -9 -8 -61 -11
-162 -9 l-149 3 -3 24 c-6 43 19 51 161 51 70 0 137 -5 148 -10z"/>
</g>
</svg>
