<?xml version="1.0" standalone="no"?>
<!DOCTYPE svg PUBLIC "-//W3C//DTD SVG 20010904//EN"
 "http://www.w3.org/TR/2001/REC-SVG-20010904/DTD/svg10.dtd">
<svg version="1.0" xmlns="http://www.w3.org/2000/svg"
 width="225.000000pt" height="225.000000pt" viewBox="0 0 225.000000 225.000000"
 preserveAspectRatio="xMidYMid meet">
<metadata>
Created by potrace 1.15, written by Peter Selinger 2001-2017
</metadata>
<g transform="translate(0.000000,225.000000) scale(0.100000,-0.100000)"
fill="#000000" stroke="none">
<path d="M690 2186 c0 -2 7 -41 15 -87 41 -216 141 -363 277 -404 29 -8 89
-15 135 -15 l83 0 -6 63 c-11 130 -26 203 -48 242 -12 22 -28 39 -35 37 -7 -1
-10 2 -7 7 16 26 -128 108 -246 141 -63 17 -168 28 -168 16z"/>
<path d="M1315 1751 c-33 -21 -82 -60 -108 -85 -44 -43 -127 -158 -127 -178 0
-4 17 -8 38 -8 33 0 43 7 99 69 47 52 79 77 137 105 42 21 81 46 86 56 17 31
-14 79 -50 79 -8 1 -42 -17 -75 -38z"/>
<path d="M629 1490 c-139 -25 -264 -151 -298 -301 -6 -24 -11 -82 -11 -129 -1
-329 146 -800 292 -936 61 -58 93 -69 198 -69 82 0 108 5 187 33 50 17 105 32
122 32 18 0 73 -14 124 -31 74 -25 110 -31 182 -32 111 -1 162 20 233 98 127
139 239 501 267 865 12 149 -23 270 -105 363 -94 106 -242 133 -451 81 -97
-24 -134 -28 -249 -28 -113 1 -150 5 -230 27 -111 30 -197 39 -261 27z m852
-441 c24 -12 40 -50 32 -77 -6 -24 -455 -460 -486 -471 -32 -12 -48 -3 -119
65 -116 111 -178 182 -178 204 0 11 12 32 26 47 40 40 75 27 170 -68 l80 -80
175 168 c96 93 186 180 201 196 29 28 65 35 99 16z"/>
</g>
</svg>
