<?xml version="1.0" standalone="no"?>
<!DOCTYPE svg PUBLIC "-//W3C//DTD SVG 20010904//EN"
 "http://www.w3.org/TR/2001/REC-SVG-20010904/DTD/svg10.dtd">
<svg version="1.0" xmlns="http://www.w3.org/2000/svg"
 width="300.000000pt" height="300.000000pt" viewBox="0 0 300.000000 300.000000"
 preserveAspectRatio="xMidYMid meet">
<metadata>
Created by potrace 1.15, written by Peter Selinger 2001-2017
</metadata>
<g transform="translate(0.000000,300.000000) scale(0.100000,-0.100000)"
fill="#000000" stroke="none">
<path d="M1312 2989 c-312 -36 -639 -197 -871 -430 -372 -371 -522 -911 -396
-1420 32 -127 63 -209 131 -339 314 -605 1019 -920 1685 -755 536 133 961 558
1094 1094 89 357 45 721 -126 1051 -257 498 -779 814 -1334 809 -60 -1 -143
-5 -183 -10z m444 -168 c131 -25 206 -51 340 -116 370 -180 640 -530 724 -938
54 -264 26 -544 -79 -786 -47 -111 -110 -222 -155 -276 l-33 -39 -947 939
c-520 517 -946 942 -946 945 1 11 123 93 201 134 159 84 319 135 489 156 104
12 289 4 406 -19z m-496 -1086 l704 -704 -23 -25 c-13 -14 -58 -43 -100 -65
-113 -59 -216 -135 -250 -185 -45 -65 -61 -140 -61 -287 l0 -127 104 38 c195
71 294 139 340 233 32 65 48 185 40 291 l-7 78 24 -16 c13 -8 114 -106 224
-215 l199 -200 -24 -27 c-50 -53 -218 -171 -315 -221 -117 -60 -244 -104 -370
-129 -120 -23 -357 -24 -481 -1 -332 60 -634 247 -838 517 -245 325 -330 737
-234 1130 51 208 146 391 295 568 25 28 50 52 56 52 7 0 329 -317 717 -705z"/>
<path d="M1376 2803 c-16 -4 -18 -11 -12 -50 7 -50 13 -61 75 -128 40 -43 45
-46 67 -35 60 32 125 114 144 181 7 25 6 27 -29 33 -41 7 -217 6 -245 -1z"/>
<path d="M1700 2710 c-7 -14 -48 -59 -91 -100 -92 -89 -104 -119 -88 -220 16
-108 12 -104 77 -63 69 43 119 88 138 125 19 37 17 129 -4 213 -18 68 -19 69
-32 45z"/>
<path d="M1280 2555 c-37 -117 -35 -161 10 -223 31 -44 146 -137 153 -125 15
25 37 124 37 168 0 59 -21 98 -95 175 -23 25 -50 58 -58 75 l-15 29 -32 -99z"/>
<path d="M1830 2443 c-13 -19 -55 -55 -92 -80 -197 -130 -237 -204 -218 -405
5 -55 11 -103 13 -105 2 -1 50 20 108 49 79 39 119 66 164 112 70 70 85 108
85 212 0 66 -22 239 -31 248 -2 3 -15 -11 -29 -31z"/>
<path d="M1138 2309 c-33 -172 -51 -131 147 -329 96 -96 177 -171 180 -168 4
3 9 49 12 102 5 78 3 104 -12 143 -22 58 -84 126 -181 199 -68 51 -94 77 -120
120 -8 15 -13 2 -26 -67z"/>
<path d="M1988 2076 c-26 -30 -66 -59 -126 -91 -167 -88 -273 -184 -288 -262
-5 -25 7 -40 105 -138 l111 -110 46 25 c67 36 140 108 164 162 31 72 43 184
33 331 l-8 128 -37 -45z"/>
<path d="M1969 1551 c-26 -27 -70 -62 -99 -76 l-53 -27 99 -99 99 -99 8 39 c4
22 4 101 0 176 l-8 135 -46 -49z"/>
<path d="M1035 1857 c-4 -25 -5 -99 -3 -164 3 -96 8 -128 27 -171 42 -93 163
-182 346 -252 33 -13 64 -27 70 -32 21 -19 25 -3 25 100 l0 107 -229 229 -229
229 -7 -46z"/>
<path d="M1027 1378 c-4 -46 -7 -128 -7 -184 0 -175 38 -251 170 -339 62 -41
266 -135 294 -135 4 0 6 73 4 163 -4 145 -6 167 -27 210 -40 81 -130 159 -284
246 -31 18 -74 53 -94 77 -21 24 -40 44 -44 44 -3 0 -9 -37 -12 -82z"/>
<path d="M1600 1281 c-46 -65 -53 -100 -58 -266 -4 -134 -2 -158 9 -148 8 6
53 25 101 41 97 35 191 80 228 110 l25 21 -135 135 c-74 75 -138 136 -142 136
-4 0 -16 -13 -28 -29z"/>
<path d="M1014 823 c-21 -297 7 -387 154 -487 37 -25 120 -68 184 -95 113 -47
117 -48 122 -27 10 37 6 243 -5 296 -22 102 -100 183 -279 290 -61 36 -103 70
-124 97 -17 23 -34 42 -38 43 -3 0 -10 -53 -14 -117z"/>
</g>
</svg>
