<?xml version="1.0" standalone="no"?>
<!DOCTYPE svg PUBLIC "-//W3C//DTD SVG 20010904//EN"
 "http://www.w3.org/TR/2001/REC-SVG-20010904/DTD/svg10.dtd">
<svg version="1.0" xmlns="http://www.w3.org/2000/svg"
 width="225.000000pt" height="225.000000pt" viewBox="0 0 225.000000 225.000000"
 preserveAspectRatio="xMidYMid meet">
<metadata>
Created by potrace 1.15, written by Peter Selinger 2001-2017
</metadata>
<g transform="translate(0.000000,225.000000) scale(0.100000,-0.100000)"
fill="#000000" stroke="none">
<path d="M868 2239 c-369 -28 -580 -116 -464 -193 20 -13 25 -27 31 -88 23
-242 110 -495 227 -653 24 -33 74 -87 110 -120 l65 -60 -69 -64 c-114 -106
-192 -232 -257 -414 -34 -98 -66 -244 -76 -355 -6 -61 -11 -75 -31 -88 -63
-42 -29 -92 89 -129 305 -97 959 -97 1264 0 118 37 152 87 89 129 -20 13 -25
27 -31 88 -10 111 -42 257 -76 355 -65 182 -143 308 -257 414 l-69 64 65 60
c36 33 86 87 110 120 117 158 204 411 227 653 6 61 11 75 31 88 13 9 26 25 30
36 35 111 -509 195 -1008 157z m-168 -275 c47 -8 196 -17 335 -20 260 -7 424
2 588 32 48 9 90 15 91 13 8 -9 -25 -201 -49 -283 -69 -236 -187 -406 -349
-500 -37 -22 -72 -48 -78 -59 -14 -28 4 -62 44 -83 71 -36 153 -101 204 -164
67 -79 145 -234 179 -355 25 -87 58 -275 50 -283 -2 -3 -19 -2 -37 2 -30 6
-35 13 -57 69 -35 92 -118 211 -217 311 -92 92 -257 226 -278 226 -17 0 -123
-81 -212 -161 -144 -131 -239 -256 -285 -376 -21 -56 -27 -63 -57 -69 -18 -4
-35 -5 -37 -2 -8 8 25 196 50 283 35 122 112 276 180 357 36 43 84 85 133 117
42 27 87 59 100 70 43 39 29 59 -100 142 -49 32 -97 74 -133 117 -98 118 -188
331 -215 511 -5 36 -13 81 -16 100 l-5 34 43 -8 c24 -4 81 -13 128 -21z"/>
<path d="M1545 1722 c-108 -128 -361 -268 -562 -313 -29 -7 -53 -15 -53 -19 0
-4 43 -49 96 -99 l95 -92 38 30 c60 48 228 226 285 304 53 73 141 216 134 221
-1 2 -16 -13 -33 -32z"/>
</g>
</svg>
